PathFileType	4	(X/Y/Z)	\\move.snu.ac.kr\motion\Animal\091204_091205_Bird\091205_bird\Project 2\Capture day 2\Session 1\pigeon_021.trc
DataRate	CameraRate	NumFrames	NumMarkers	Units	OrigDataRate	OrigDataStartFrame	OrigNumFrames
240.0	240.0	8	14	mm	240.0	105	2193
Frame#	Time	14MarkersBird:Head			14MarkersBird:C_back			14MarkersBird:Spine			14MarkersBird:L-shoulder			14MarkersBird:L-elbow			14MarkersBird:L-wrist			14MarkersBird:L-hand			14MarkersBird:R-shoulder			14MarkersBird:R-elbow			14MarkersBird:R-Wrist			14MarkersBird:R-hand			14MarkersBird:C_Tail			14MarkersBird:L-Tale			14MarkersBird:R-Tale			
		X1	Y1	Z1	X2	Y2	Z2	X3	Y3	Z3	X4	Y4	Z4	X5	Y5	Z5	X6	Y6	Z6	X7	Y7	Z7	X8	Y8	Z8	X9	Y9	Z9	X10	Y10	Z10	X11	Y11	Z11	X12	Y12	Z12	X13	Y13	Z13	X14	Y14	Z14	

974	4.054	282.60541	1324.97375	-2199.21094	339.71094	1327.25098	-2186.10938	393.71545	1314.55103	-2172.52026	310.05185	1325.72375	-2172.25830	333.46796	1344.93982	-2163.15356	315.18591	1369.00488	-2132.49951	322.56940	1391.68921	-2122.50098	318.15317	1318.92151	-2213.49731	342.77567	1342.47485	-2216.22925	335.04312	1354.14172	-2252.85767	350.17981	1381.53796	-2273.07666	493.46982	1256.82813	-2127.03394	404.84439	1307.12280	-2070.72827	453.22571	1265.96875	-2254.28174	
975	4.058	272.96024	1321.59436	-2201.21777	330.29947	1323.44006	-2187.31299	384.09616	1310.89307	-2174.07764	300.22186	1321.99976	-2173.80225	321.61771	1339.60083	-2160.56470	301.68689	1357.77551	-2128.30103	305.33957	1378.48364	-2114.69116	308.17804	1314.58826	-2215.95361	333.92883	1338.03613	-2218.92285	323.34009	1341.83264	-2259.40845	335.23218	1364.68054	-2284.28442	483.57260	1253.58472	-2128.36230	394.85162	1302.71094	-2072.28369	443.86414	1261.60303	-2255.12817	
976	4.063	263.18481	1318.29871	-2203.19482	320.71872	1319.78564	-2188.47046	374.40918	1307.76697	-2175.77734	290.23257	1318.25598	-2175.31226	309.59164	1333.50220	-2157.94116	287.45837	1345.07263	-2125.36938	287.37198	1362.65393	-2108.21118	298.04761	1310.30627	-2218.23022	323.86493	1330.28308	-2226.55469	310.45993	1328.42639	-2264.66699	319.15771	1345.29065	-2293.86548	473.27484	1250.06042	-2129.83911	385.00323	1297.80371	-2073.93726	434.72668	1257.10754	-2255.67065	
977	4.067	253.25832	1315.04590	-2205.13647	310.94260	1316.32922	-2189.63525	364.63235	1305.28137	-2177.64014	280.04913	1314.51636	-2176.79419	297.30820	1326.79749	-2155.69507	272.72885	1331.41687	-2124.31885	269.12003	1344.75928	-2104.42334	287.73563	1306.10852	-2220.31152	311.59933	1321.79248	-2234.62891	296.47430	1314.51501	-2268.07739	301.96329	1324.33545	-2300.37402	462.66727	1246.35522	-2131.54956	375.34930	1292.53174	-2075.72900	425.80093	1252.73853	-2256.02686	
978	4.071	243.17770	1311.82373	-2207.02075	300.95798	1313.12012	-2190.85938	354.74344	1303.54517	-2179.68726	269.67026	1310.80762	-2178.27588	284.90616	1319.66980	-2154.03076	257.77536	1317.52917	-2125.46118	251.02621	1325.65149	-2104.15918	277.25433	1302.02905	-2222.21240	299.42050	1313.44006	-2239.75684	281.58798	1300.84656	-2269.41016	283.66995	1303.05872	-2302.99927	451.88391	1242.59888	-2133.57568	365.92636	1287.05286	-2077.69214	417.04578	1248.73499	-2256.33350	
979	4.075	232.91260	1308.53748	-2208.92358	290.69934	1310.18933	-2192.23389	344.76202	1302.47253	-2181.90405	259.10501	1307.18848	-2179.77246	272.57071	1312.36926	-2153.06860	242.95988	1304.16882	-2128.75659	233.50655	1306.57532	-2107.73218	266.64087	1298.14014	-2223.97485	286.05341	1303.00269	-2243.75122	266.16129	1288.17200	-2268.77881	264.67944	1282.82129	-2301.63574	441.05072	1238.94446	-2136.00195	356.75735	1281.52588	-2079.84302	408.35828	1245.24939	-2256.74902	
980	4.079	222.53036	1305.11243	-2210.73438	280.23181	1307.44324	-2193.74683	334.02277	1301.51990	-2183.80933	248.35345	1303.68799	-2181.31860	260.51907	1305.19031	-2152.87915	228.57881	1292.13721	-2133.83887	216.95432	1288.84973	-2114.73438	255.93416	1294.50830	-2225.63574	273.45233	1297.11072	-2242.43823	250.63060	1277.15027	-2266.57202	245.49867	1264.88232	-2296.78296	430.31796	1235.55261	-2138.87500	347.83084	1276.13428	-2082.21509	399.58908	1242.32715	-2257.40991	
981	4.083	211.94350	1301.52002	-2212.53613	269.50262	1304.86243	-2195.46802	323.43262	1300.48047	-2186.08423	237.43597	1300.28113	-2182.95435	248.92937	1298.49512	-2153.38184	214.88239	1282.09998	-2140.11743	201.57147	1273.60449	-2124.23340	245.12257	1291.11511	-2227.23926	261.71979	1290.34595	-2245.01953	235.46317	1268.30139	-2263.45532	226.79375	1249.96851	-2289.49438	419.72607	1232.48022	-2142.18823	339.07578	1271.01453	-2084.79248	390.56488	1239.87415	-2258.43213	
